<svg width="81" height="21" viewBox="0 0 81 21" fill="none" xmlns="http://www.w3.org/2000/svg">
<path d="M0.163001 10.3038C0.163001 7.19347 0.951858 4.72322 2.52957 2.89307C4.10729 1.06292 6.3837 0.147849 9.35882 0.147849C11.0718 0.147849 12.5233 0.413806 13.7133 0.945721C14.9034 1.47764 15.7418 2.24846 16.2286 3.2582C16.5532 3.92535 16.4991 4.37612 16.0664 4.61053L14.4436 5.47601C13.8756 5.78254 13.4068 5.61125 13.0371 4.96213C12.8027 4.54742 12.3655 4.17327 11.7254 3.8397C11.0943 3.50613 10.3505 3.33934 9.49405 3.33934C7.6008 3.33934 6.27552 3.93887 5.51821 5.13793C4.76091 6.32798 4.38226 8.04994 4.38226 10.3038C4.38226 12.5577 4.76091 14.2842 5.51821 15.4832C6.27552 16.6733 7.6008 17.2683 9.49405 17.2683C10.5128 17.2683 11.3693 17.0384 12.0635 16.5786C12.7667 16.1188 13.2535 15.6816 13.524 15.2669C13.9657 14.5907 14.4346 14.4194 14.9304 14.753L16.5532 15.8348C16.995 16.1323 17.04 16.5831 16.6884 17.1872C16.1655 18.0887 15.2685 18.8595 13.9973 19.4996C12.7261 20.1397 11.18 20.4598 9.35882 20.4598C6.42878 20.4598 4.16138 19.5447 2.55662 17.7146C0.960873 15.8844 0.163001 13.4142 0.163001 10.3038ZM19.339 10.3038C19.339 7.19347 20.1414 4.72322 21.7461 2.89307C23.3509 1.06292 25.6408 0.147849 28.6159 0.147849C31.5911 0.147849 33.881 1.06292 35.4858 2.89307C37.0905 4.72322 37.8929 7.19347 37.8929 10.3038C37.8929 13.4142 37.0905 15.8844 35.4858 17.7146C33.881 19.5447 31.5911 20.4598 28.6159 20.4598C25.6408 20.4598 23.3509 19.5447 21.7461 17.7146C20.1414 15.8844 19.339 13.4142 19.339 10.3038ZM23.5582 10.3038C23.5582 12.5577 23.9594 14.2842 24.7618 15.4832C25.5732 16.6733 26.8579 17.2683 28.6159 17.2683C30.374 17.2683 31.6542 16.6733 32.4566 15.4832C33.2679 14.2842 33.6736 12.5577 33.6736 10.3038C33.6736 8.04994 33.2679 6.32798 32.4566 5.13793C31.6542 3.93887 30.374 3.33934 28.6159 3.33934C26.8579 3.33934 25.5732 3.93887 24.7618 5.13793C23.9594 6.32798 23.5582 8.04994 23.5582 10.3038ZM42.1663 20C41.5352 20 41.2196 19.6619 41.2196 18.9858V1.62188C41.2196 0.945721 41.5352 0.60764 42.1663 0.60764H46.088C46.6109 0.60764 46.985 0.96826 47.2104 1.6895L50.8752 13.5494C51.0375 14.0633 51.1502 14.487 51.2133 14.8206C51.2764 15.1451 51.3305 15.5328 51.3756 15.9836H51.4567C51.5018 15.5328 51.5559 15.1451 51.619 14.8206C51.6821 14.487 51.7948 14.0633 51.9571 13.5494L55.6219 1.6895C55.8473 0.96826 56.2214 0.60764 56.7443 0.60764H60.6661C61.2972 0.60764 61.6127 0.945721 61.6127 1.62188V18.9858C61.6127 19.6619 61.2972 20 60.6661 20H58.6105C57.9795 20 57.6639 19.6619 57.6639 18.9858V7.81554C57.6639 7.27461 57.6865 6.73368 57.7315 6.19275H57.6369L53.7286 18.9046C53.5033 19.6349 53.1156 20 52.5656 20H50.2667C49.7167 20 49.3291 19.6349 49.1037 18.9046L45.1955 6.19275H45.1008C45.1459 6.73368 45.1684 7.27461 45.1684 7.81554V18.9858C45.1684 19.6619 44.8529 20 44.2218 20H42.1663ZM65.9402 11.9266V1.35142C65.9402 0.855566 66.2557 0.60764 66.8868 0.60764H68.9423C69.5734 0.60764 69.8889 0.855566 69.8889 1.35142V11.7914C69.8889 14.2256 70.2451 15.7492 70.9573 16.3622C71.6785 16.9663 72.4899 17.2683 73.3915 17.2683C74.293 17.2683 75.0999 16.9663 75.8121 16.3622C76.5334 15.7492 76.894 14.2256 76.894 11.7914V1.35142C76.894 0.855566 77.2095 0.60764 77.8406 0.60764H79.8962C80.5272 0.60764 80.8428 0.855566 80.8428 1.35142V11.9266C80.8428 15.082 80.1756 17.2953 78.8413 18.5665C77.507 19.8287 75.6904 20.4598 73.3915 20.4598C71.0925 20.4598 69.2759 19.8287 67.9416 18.5665C66.6073 17.2953 65.9402 15.082 65.9402 11.9266Z" fill="#323232"/>
</svg>
